<mxfile host="app.diagrams.net" modified="2023-07-25T15:39:20.451Z" agent="Mozilla/5.0 (Windows NT 10.0; Win64; x64) AppleWebKit/537.36 (KHTML, like Gecko) Chrome/115.0.0.0 Safari/537.36 Edg/115.0.1901.183" etag="ef22vnIulbEP3DBIa4EN" version="21.6.5" type="device">
  <diagram id="zssgmvdwZO7xPkAqMUr9" name="Page-1">
    <mxGraphModel dx="781" dy="-661" grid="1" gridSize="10" guides="1" tooltips="1" connect="1" arrows="1" fold="1" page="1" pageScale="1" pageWidth="850" pageHeight="1100" math="0" shadow="0">
      <root>
        <mxCell id="0" />
        <mxCell id="1" parent="0" />
        <mxCell id="G5vFoTbcPxcVKafW3-E5-35" value="" style="rounded=1;whiteSpace=wrap;html=1;strokeColor=#999999;strokeWidth=2;" parent="1" vertex="1">
          <mxGeometry x="210" y="1190" width="250" height="80" as="geometry" />
        </mxCell>
        <mxCell id="G5vFoTbcPxcVKafW3-E5-36" value="" style="rounded=0;whiteSpace=wrap;html=1;fillColor=#dae8fc;strokeColor=#6c8ebf;" parent="1" vertex="1">
          <mxGeometry x="244" y="1265" width="10" height="10" as="geometry" />
        </mxCell>
        <mxCell id="G5vFoTbcPxcVKafW3-E5-38" value="" style="rounded=0;whiteSpace=wrap;html=1;fillColor=#dae8fc;strokeColor=#6c8ebf;" parent="1" vertex="1">
          <mxGeometry x="258" y="1265" width="10" height="10" as="geometry" />
        </mxCell>
        <mxCell id="G5vFoTbcPxcVKafW3-E5-37" value="&lt;div style=&quot;font-size: 16px;&quot;&gt;&lt;font style=&quot;font-size: 16px;&quot;&gt;FMU&lt;/font&gt;&lt;/div&gt;" style="text;html=1;strokeColor=none;fillColor=none;align=center;verticalAlign=middle;whiteSpace=wrap;rounded=0;fontSize=20;" parent="1" vertex="1">
          <mxGeometry x="210" y="1190" width="260" height="30" as="geometry" />
        </mxCell>
        <mxCell id="G5vFoTbcPxcVKafW3-E5-39" value="" style="rounded=0;whiteSpace=wrap;html=1;fillColor=#dae8fc;strokeColor=#6c8ebf;" parent="1" vertex="1">
          <mxGeometry x="272" y="1265" width="10" height="10" as="geometry" />
        </mxCell>
        <mxCell id="G5vFoTbcPxcVKafW3-E5-40" value="" style="rounded=0;whiteSpace=wrap;html=1;fillColor=#dae8fc;strokeColor=#6c8ebf;" parent="1" vertex="1">
          <mxGeometry x="308" y="1265" width="10" height="10" as="geometry" />
        </mxCell>
        <mxCell id="G5vFoTbcPxcVKafW3-E5-41" value="" style="rounded=0;whiteSpace=wrap;html=1;fillColor=#dae8fc;strokeColor=#6c8ebf;" parent="1" vertex="1">
          <mxGeometry x="322" y="1265" width="10" height="10" as="geometry" />
        </mxCell>
        <mxCell id="G5vFoTbcPxcVKafW3-E5-42" value="Signal 1" style="text;html=1;strokeColor=none;fillColor=none;align=center;verticalAlign=middle;whiteSpace=wrap;rounded=0;fontSize=6;rotation=-90;" parent="1" vertex="1">
          <mxGeometry x="235" y="1249.5" width="28" height="5" as="geometry" />
        </mxCell>
        <mxCell id="G5vFoTbcPxcVKafW3-E5-43" value="Signal 2" style="text;html=1;strokeColor=none;fillColor=none;align=center;verticalAlign=middle;whiteSpace=wrap;rounded=0;fontSize=6;rotation=-90;" parent="1" vertex="1">
          <mxGeometry x="249" y="1249.5" width="28" height="5" as="geometry" />
        </mxCell>
        <mxCell id="G5vFoTbcPxcVKafW3-E5-44" value="Signal 3" style="text;html=1;strokeColor=none;fillColor=none;align=center;verticalAlign=middle;whiteSpace=wrap;rounded=0;fontSize=6;rotation=-90;" parent="1" vertex="1">
          <mxGeometry x="263" y="1249.5" width="28" height="5" as="geometry" />
        </mxCell>
        <mxCell id="G5vFoTbcPxcVKafW3-E5-45" value="Signal 4" style="text;html=1;strokeColor=none;fillColor=none;align=center;verticalAlign=middle;whiteSpace=wrap;rounded=0;fontSize=6;rotation=-90;" parent="1" vertex="1">
          <mxGeometry x="299" y="1249.5" width="28" height="5" as="geometry" />
        </mxCell>
        <mxCell id="G5vFoTbcPxcVKafW3-E5-46" value="Signal 5" style="text;html=1;strokeColor=none;fillColor=none;align=center;verticalAlign=middle;whiteSpace=wrap;rounded=0;fontSize=6;rotation=-90;" parent="1" vertex="1">
          <mxGeometry x="313" y="1249.5" width="28" height="5" as="geometry" />
        </mxCell>
        <mxCell id="G5vFoTbcPxcVKafW3-E5-47" value="" style="whiteSpace=wrap;html=1;aspect=fixed;fillColor=none;rounded=1;strokeColor=#777777;" parent="1" vertex="1">
          <mxGeometry x="238" y="1230" width="50" height="50" as="geometry" />
        </mxCell>
        <mxCell id="G5vFoTbcPxcVKafW3-E5-49" value="" style="whiteSpace=wrap;html=1;aspect=fixed;fillColor=none;rounded=1;glass=0;strokeColor=#777777;" parent="1" vertex="1">
          <mxGeometry x="295" y="1230" width="50" height="50" as="geometry" />
        </mxCell>
        <mxCell id="G5vFoTbcPxcVKafW3-E5-51" value="PDU A" style="text;html=1;strokeColor=none;fillColor=none;align=center;verticalAlign=middle;whiteSpace=wrap;rounded=0;fontSize=6;rotation=0;fontStyle=1;fontColor=#777777;" parent="1" vertex="1">
          <mxGeometry x="240" y="1232" width="50" height="5" as="geometry" />
        </mxCell>
        <mxCell id="G5vFoTbcPxcVKafW3-E5-52" value="PDU B" style="text;html=1;strokeColor=none;fillColor=none;align=center;verticalAlign=middle;whiteSpace=wrap;rounded=0;fontSize=6;rotation=0;fontStyle=1;fontColor=#777777;" parent="1" vertex="1">
          <mxGeometry x="300" y="1232" width="40" height="5" as="geometry" />
        </mxCell>
        <mxCell id="G5vFoTbcPxcVKafW3-E5-54" value="Frame X" style="text;html=1;strokeColor=none;fillColor=none;align=center;verticalAlign=middle;whiteSpace=wrap;rounded=0;fontSize=6;rotation=0;fontStyle=1;fontColor=#777777;" parent="1" vertex="1">
          <mxGeometry x="232" y="1292" width="118" height="5" as="geometry" />
        </mxCell>
        <mxCell id="G5vFoTbcPxcVKafW3-E5-55" value="" style="rounded=0;whiteSpace=wrap;html=1;fillColor=#dae8fc;strokeColor=#6c8ebf;" parent="1" vertex="1">
          <mxGeometry x="391" y="1265" width="10" height="10" as="geometry" />
        </mxCell>
        <mxCell id="G5vFoTbcPxcVKafW3-E5-56" value="" style="rounded=0;whiteSpace=wrap;html=1;fillColor=#dae8fc;strokeColor=#6c8ebf;" parent="1" vertex="1">
          <mxGeometry x="405" y="1265" width="10" height="10" as="geometry" />
        </mxCell>
        <mxCell id="G5vFoTbcPxcVKafW3-E5-57" value="" style="rounded=0;whiteSpace=wrap;html=1;fillColor=#dae8fc;strokeColor=#6c8ebf;" parent="1" vertex="1">
          <mxGeometry x="419" y="1265" width="10" height="10" as="geometry" />
        </mxCell>
        <mxCell id="G5vFoTbcPxcVKafW3-E5-60" value="Signal 6" style="text;html=1;strokeColor=none;fillColor=none;align=center;verticalAlign=middle;whiteSpace=wrap;rounded=0;fontSize=6;rotation=-90;" parent="1" vertex="1">
          <mxGeometry x="382" y="1249.5" width="28" height="5" as="geometry" />
        </mxCell>
        <mxCell id="G5vFoTbcPxcVKafW3-E5-61" value="Signal 7" style="text;html=1;strokeColor=none;fillColor=none;align=center;verticalAlign=middle;whiteSpace=wrap;rounded=0;fontSize=6;rotation=-90;" parent="1" vertex="1">
          <mxGeometry x="396" y="1249.5" width="28" height="5" as="geometry" />
        </mxCell>
        <mxCell id="G5vFoTbcPxcVKafW3-E5-62" value="Signal 8" style="text;html=1;strokeColor=none;fillColor=none;align=center;verticalAlign=middle;whiteSpace=wrap;rounded=0;fontSize=6;rotation=-90;" parent="1" vertex="1">
          <mxGeometry x="410" y="1249.5" width="28" height="5" as="geometry" />
        </mxCell>
        <mxCell id="G5vFoTbcPxcVKafW3-E5-67" value="PDU C" style="text;html=1;strokeColor=none;fillColor=none;align=center;verticalAlign=middle;whiteSpace=wrap;rounded=0;fontSize=6;rotation=0;fontStyle=1;fontColor=#777777;" parent="1" vertex="1">
          <mxGeometry x="387" y="1232" width="50" height="5" as="geometry" />
        </mxCell>
        <mxCell id="G5vFoTbcPxcVKafW3-E5-70" value="Frame Y" style="text;html=1;strokeColor=none;fillColor=none;align=center;verticalAlign=middle;whiteSpace=wrap;rounded=0;fontSize=6;rotation=0;fontStyle=1;fontColor=#777777;" parent="1" vertex="1">
          <mxGeometry x="379" y="1292" width="61" height="5" as="geometry" />
        </mxCell>
        <mxCell id="G5vFoTbcPxcVKafW3-E5-65" value="" style="whiteSpace=wrap;html=1;aspect=fixed;fillColor=none;rounded=1;fontColor=#777777;strokeColor=#777777;" parent="1" vertex="1">
          <mxGeometry x="385" y="1230" width="50" height="50" as="geometry" />
        </mxCell>
        <mxCell id="G5vFoTbcPxcVKafW3-E5-69" value="" style="whiteSpace=wrap;html=1;fillColor=none;rounded=1;strokeColor=#777777;" parent="1" vertex="1">
          <mxGeometry x="379" y="1225.5" width="61" height="74.5" as="geometry" />
        </mxCell>
        <mxCell id="G5vFoTbcPxcVKafW3-E5-53" value="" style="whiteSpace=wrap;html=1;fillColor=none;rounded=1;fontColor=#777777;strokeColor=#777777;" parent="1" vertex="1">
          <mxGeometry x="232" y="1225.5" width="118" height="74.5" as="geometry" />
        </mxCell>
        <mxCell id="G5vFoTbcPxcVKafW3-E5-99" value="" style="rounded=1;whiteSpace=wrap;html=1;strokeColor=#999999;strokeWidth=2;" parent="1" vertex="1">
          <mxGeometry x="476" y="1190" width="250" height="80" as="geometry" />
        </mxCell>
        <mxCell id="G5vFoTbcPxcVKafW3-E5-100" value="" style="rounded=0;whiteSpace=wrap;html=1;fillColor=#dae8fc;strokeColor=#6c8ebf;" parent="1" vertex="1">
          <mxGeometry x="510" y="1265" width="10" height="10" as="geometry" />
        </mxCell>
        <mxCell id="G5vFoTbcPxcVKafW3-E5-101" value="" style="rounded=0;whiteSpace=wrap;html=1;fillColor=#dae8fc;strokeColor=#6c8ebf;" parent="1" vertex="1">
          <mxGeometry x="524" y="1265" width="10" height="10" as="geometry" />
        </mxCell>
        <mxCell id="G5vFoTbcPxcVKafW3-E5-102" value="&lt;div style=&quot;font-size: 16px;&quot;&gt;&lt;font style=&quot;font-size: 16px;&quot;&gt;FMU&lt;/font&gt;&lt;/div&gt;" style="text;html=1;strokeColor=none;fillColor=none;align=center;verticalAlign=middle;whiteSpace=wrap;rounded=0;fontSize=20;" parent="1" vertex="1">
          <mxGeometry x="476" y="1190" width="260" height="30" as="geometry" />
        </mxCell>
        <mxCell id="G5vFoTbcPxcVKafW3-E5-103" value="" style="rounded=0;whiteSpace=wrap;html=1;fillColor=#dae8fc;strokeColor=#6c8ebf;" parent="1" vertex="1">
          <mxGeometry x="538" y="1265" width="10" height="10" as="geometry" />
        </mxCell>
        <mxCell id="G5vFoTbcPxcVKafW3-E5-104" value="" style="rounded=0;whiteSpace=wrap;html=1;fillColor=#dae8fc;strokeColor=#6c8ebf;" parent="1" vertex="1">
          <mxGeometry x="574" y="1265" width="10" height="10" as="geometry" />
        </mxCell>
        <mxCell id="G5vFoTbcPxcVKafW3-E5-105" value="" style="rounded=0;whiteSpace=wrap;html=1;fillColor=#dae8fc;strokeColor=#6c8ebf;" parent="1" vertex="1">
          <mxGeometry x="588" y="1265" width="10" height="10" as="geometry" />
        </mxCell>
        <mxCell id="G5vFoTbcPxcVKafW3-E5-106" value="Signal 1" style="text;html=1;strokeColor=none;fillColor=none;align=center;verticalAlign=middle;whiteSpace=wrap;rounded=0;fontSize=6;rotation=-90;" parent="1" vertex="1">
          <mxGeometry x="501" y="1249.5" width="28" height="5" as="geometry" />
        </mxCell>
        <mxCell id="G5vFoTbcPxcVKafW3-E5-107" value="Signal 2" style="text;html=1;strokeColor=none;fillColor=none;align=center;verticalAlign=middle;whiteSpace=wrap;rounded=0;fontSize=6;rotation=-90;" parent="1" vertex="1">
          <mxGeometry x="515" y="1249.5" width="28" height="5" as="geometry" />
        </mxCell>
        <mxCell id="G5vFoTbcPxcVKafW3-E5-108" value="Signal 3" style="text;html=1;strokeColor=none;fillColor=none;align=center;verticalAlign=middle;whiteSpace=wrap;rounded=0;fontSize=6;rotation=-90;" parent="1" vertex="1">
          <mxGeometry x="529" y="1249.5" width="28" height="5" as="geometry" />
        </mxCell>
        <mxCell id="G5vFoTbcPxcVKafW3-E5-109" value="Signal 4" style="text;html=1;strokeColor=none;fillColor=none;align=center;verticalAlign=middle;whiteSpace=wrap;rounded=0;fontSize=6;rotation=-90;" parent="1" vertex="1">
          <mxGeometry x="565" y="1249.5" width="28" height="5" as="geometry" />
        </mxCell>
        <mxCell id="G5vFoTbcPxcVKafW3-E5-110" value="Signal 5" style="text;html=1;strokeColor=none;fillColor=none;align=center;verticalAlign=middle;whiteSpace=wrap;rounded=0;fontSize=6;rotation=-90;" parent="1" vertex="1">
          <mxGeometry x="579" y="1249.5" width="28" height="5" as="geometry" />
        </mxCell>
        <mxCell id="G5vFoTbcPxcVKafW3-E5-111" value="" style="whiteSpace=wrap;html=1;aspect=fixed;fillColor=none;rounded=1;strokeColor=#777777;" parent="1" vertex="1">
          <mxGeometry x="504" y="1230" width="50" height="50" as="geometry" />
        </mxCell>
        <mxCell id="G5vFoTbcPxcVKafW3-E5-112" value="" style="whiteSpace=wrap;html=1;aspect=fixed;fillColor=none;rounded=1;glass=0;strokeColor=#777777;" parent="1" vertex="1">
          <mxGeometry x="561" y="1230" width="50" height="50" as="geometry" />
        </mxCell>
        <mxCell id="G5vFoTbcPxcVKafW3-E5-113" value="PDU A" style="text;html=1;strokeColor=none;fillColor=none;align=center;verticalAlign=middle;whiteSpace=wrap;rounded=0;fontSize=6;rotation=0;fontStyle=1;fontColor=#777777;" parent="1" vertex="1">
          <mxGeometry x="506" y="1232" width="50" height="5" as="geometry" />
        </mxCell>
        <mxCell id="G5vFoTbcPxcVKafW3-E5-114" value="PDU B" style="text;html=1;strokeColor=none;fillColor=none;align=center;verticalAlign=middle;whiteSpace=wrap;rounded=0;fontSize=6;rotation=0;fontStyle=1;fontColor=#777777;" parent="1" vertex="1">
          <mxGeometry x="566" y="1232" width="40" height="5" as="geometry" />
        </mxCell>
        <mxCell id="G5vFoTbcPxcVKafW3-E5-115" value="Frame X" style="text;html=1;strokeColor=none;fillColor=none;align=center;verticalAlign=middle;whiteSpace=wrap;rounded=0;fontSize=6;rotation=0;fontStyle=1;fontColor=#777777;" parent="1" vertex="1">
          <mxGeometry x="498" y="1292" width="118" height="5" as="geometry" />
        </mxCell>
        <mxCell id="G5vFoTbcPxcVKafW3-E5-116" value="" style="rounded=0;whiteSpace=wrap;html=1;fillColor=#dae8fc;strokeColor=#6c8ebf;" parent="1" vertex="1">
          <mxGeometry x="657" y="1265" width="10" height="10" as="geometry" />
        </mxCell>
        <mxCell id="G5vFoTbcPxcVKafW3-E5-117" value="" style="rounded=0;whiteSpace=wrap;html=1;fillColor=#dae8fc;strokeColor=#6c8ebf;" parent="1" vertex="1">
          <mxGeometry x="671" y="1265" width="10" height="10" as="geometry" />
        </mxCell>
        <mxCell id="G5vFoTbcPxcVKafW3-E5-118" value="" style="rounded=0;whiteSpace=wrap;html=1;fillColor=#dae8fc;strokeColor=#6c8ebf;" parent="1" vertex="1">
          <mxGeometry x="685" y="1265" width="10" height="10" as="geometry" />
        </mxCell>
        <mxCell id="G5vFoTbcPxcVKafW3-E5-119" value="Signal 6" style="text;html=1;strokeColor=none;fillColor=none;align=center;verticalAlign=middle;whiteSpace=wrap;rounded=0;fontSize=6;rotation=-90;" parent="1" vertex="1">
          <mxGeometry x="648" y="1249.5" width="28" height="5" as="geometry" />
        </mxCell>
        <mxCell id="G5vFoTbcPxcVKafW3-E5-120" value="Signal 7" style="text;html=1;strokeColor=none;fillColor=none;align=center;verticalAlign=middle;whiteSpace=wrap;rounded=0;fontSize=6;rotation=-90;" parent="1" vertex="1">
          <mxGeometry x="662" y="1249.5" width="28" height="5" as="geometry" />
        </mxCell>
        <mxCell id="G5vFoTbcPxcVKafW3-E5-121" value="Signal 8" style="text;html=1;strokeColor=none;fillColor=none;align=center;verticalAlign=middle;whiteSpace=wrap;rounded=0;fontSize=6;rotation=-90;" parent="1" vertex="1">
          <mxGeometry x="676" y="1249.5" width="28" height="5" as="geometry" />
        </mxCell>
        <mxCell id="G5vFoTbcPxcVKafW3-E5-122" value="PDU C" style="text;html=1;strokeColor=none;fillColor=none;align=center;verticalAlign=middle;whiteSpace=wrap;rounded=0;fontSize=6;rotation=0;fontStyle=1;fontColor=#777777;" parent="1" vertex="1">
          <mxGeometry x="653" y="1232" width="50" height="5" as="geometry" />
        </mxCell>
        <mxCell id="G5vFoTbcPxcVKafW3-E5-123" value="Frame Y" style="text;html=1;strokeColor=none;fillColor=none;align=center;verticalAlign=middle;whiteSpace=wrap;rounded=0;fontSize=6;rotation=0;fontStyle=1;fontColor=#777777;" parent="1" vertex="1">
          <mxGeometry x="645" y="1292" width="61" height="5" as="geometry" />
        </mxCell>
        <mxCell id="G5vFoTbcPxcVKafW3-E5-124" value="" style="whiteSpace=wrap;html=1;aspect=fixed;fillColor=none;rounded=1;fontColor=#777777;strokeColor=#777777;" parent="1" vertex="1">
          <mxGeometry x="651" y="1230" width="50" height="50" as="geometry" />
        </mxCell>
        <mxCell id="G5vFoTbcPxcVKafW3-E5-125" value="" style="whiteSpace=wrap;html=1;fillColor=none;rounded=1;strokeColor=#777777;" parent="1" vertex="1">
          <mxGeometry x="645" y="1225.5" width="61" height="74.5" as="geometry" />
        </mxCell>
        <mxCell id="G5vFoTbcPxcVKafW3-E5-126" value="" style="whiteSpace=wrap;html=1;fillColor=none;rounded=1;fontColor=#777777;strokeColor=#777777;" parent="1" vertex="1">
          <mxGeometry x="498" y="1225.5" width="118" height="74.5" as="geometry" />
        </mxCell>
        <mxCell id="G5vFoTbcPxcVKafW3-E5-129" value="" style="rounded=0;whiteSpace=wrap;html=1;fillColor=#dae8fc;strokeColor=#6c8ebf;" parent="1" vertex="1">
          <mxGeometry x="333" y="1295" width="10" height="10" as="geometry" />
        </mxCell>
        <mxCell id="G5vFoTbcPxcVKafW3-E5-133" value="" style="rounded=1;whiteSpace=wrap;html=1;strokeColor=#999999;strokeWidth=2;" parent="1" vertex="1">
          <mxGeometry x="210" y="1380" width="516" height="80" as="geometry" />
        </mxCell>
        <mxCell id="G5vFoTbcPxcVKafW3-E5-134" value="" style="endArrow=none;html=1;fontSize=20;fillColor=#b1ddf0;strokeColor=#7EA6E0;rounded=0;strokeWidth=7;movable=1;resizable=1;rotatable=1;deletable=1;editable=1;connectable=1;exitX=0.981;exitY=0.375;exitDx=0;exitDy=0;exitPerimeter=0;entryX=0.019;entryY=0.375;entryDx=0;entryDy=0;entryPerimeter=0;" parent="1" source="G5vFoTbcPxcVKafW3-E5-133" target="G5vFoTbcPxcVKafW3-E5-133" edge="1">
          <mxGeometry width="50" height="50" relative="1" as="geometry">
            <mxPoint x="655" y="1410" as="sourcePoint" />
            <mxPoint x="375" y="1410" as="targetPoint" />
            <Array as="points">
              <mxPoint x="605" y="1410" />
              <mxPoint x="425" y="1410" />
            </Array>
          </mxGeometry>
        </mxCell>
        <mxCell id="G5vFoTbcPxcVKafW3-E5-135" value="" style="endArrow=none;html=1;rounded=0;entryX=0.5;entryY=1;entryDx=0;entryDy=0;strokeWidth=3;strokeColor=#7EA6E0;" parent="1" target="G5vFoTbcPxcVKafW3-E5-129" edge="1">
          <mxGeometry width="50" height="50" relative="1" as="geometry">
            <mxPoint x="338" y="1410" as="sourcePoint" />
            <mxPoint x="317.5" y="1310" as="targetPoint" />
          </mxGeometry>
        </mxCell>
        <mxCell id="G5vFoTbcPxcVKafW3-E5-137" value="&lt;font style=&quot;font-size: 16px;&quot;&gt;Bus Simulation&lt;/font&gt;" style="text;html=1;strokeColor=none;fillColor=none;align=center;verticalAlign=middle;whiteSpace=wrap;rounded=0;movable=1;resizable=1;rotatable=1;deletable=1;editable=1;connectable=1;" parent="1" vertex="1">
          <mxGeometry x="220" y="1420" width="500" height="30" as="geometry" />
        </mxCell>
        <mxCell id="G5vFoTbcPxcVKafW3-E5-138" value="" style="endArrow=none;html=1;rounded=0;strokeColor=#FFFFFF;strokeWidth=3;fontSize=16;dashed=1;" parent="1" edge="1">
          <mxGeometry width="50" height="50" relative="1" as="geometry">
            <mxPoint x="492.5" y="1410" as="sourcePoint" />
            <mxPoint x="537.5" y="1410" as="targetPoint" />
          </mxGeometry>
        </mxCell>
        <mxCell id="G5vFoTbcPxcVKafW3-E5-139" value="" style="endArrow=classic;html=1;rounded=0;" parent="1" edge="1">
          <mxGeometry width="50" height="50" relative="1" as="geometry">
            <mxPoint x="330" y="1320" as="sourcePoint" />
            <mxPoint x="330" y="1360" as="targetPoint" />
          </mxGeometry>
        </mxCell>
        <mxCell id="G5vFoTbcPxcVKafW3-E5-141" value="" style="endArrow=classic;html=1;rounded=0;" parent="1" edge="1">
          <mxGeometry width="50" height="50" relative="1" as="geometry">
            <mxPoint x="594.72" y="1360" as="sourcePoint" />
            <mxPoint x="594.72" y="1320" as="targetPoint" />
          </mxGeometry>
        </mxCell>
        <mxCell id="G5vFoTbcPxcVKafW3-E5-145" value="" style="rounded=0;whiteSpace=wrap;html=1;fillColor=#dae8fc;strokeColor=#6c8ebf;" parent="1" vertex="1">
          <mxGeometry x="425" y="1295" width="10" height="10" as="geometry" />
        </mxCell>
        <mxCell id="G5vFoTbcPxcVKafW3-E5-146" value="" style="endArrow=none;html=1;rounded=0;entryX=0.5;entryY=1;entryDx=0;entryDy=0;strokeWidth=3;strokeColor=#7EA6E0;" parent="1" target="G5vFoTbcPxcVKafW3-E5-145" edge="1">
          <mxGeometry width="50" height="50" relative="1" as="geometry">
            <mxPoint x="430" y="1410" as="sourcePoint" />
            <mxPoint x="409.5" y="1310" as="targetPoint" />
          </mxGeometry>
        </mxCell>
        <mxCell id="G5vFoTbcPxcVKafW3-E5-147" value="" style="endArrow=classic;html=1;rounded=0;" parent="1" edge="1">
          <mxGeometry width="50" height="50" relative="1" as="geometry">
            <mxPoint x="688" y="1320" as="sourcePoint" />
            <mxPoint x="688" y="1360" as="targetPoint" />
          </mxGeometry>
        </mxCell>
        <mxCell id="G5vFoTbcPxcVKafW3-E5-148" value="" style="endArrow=classic;html=1;rounded=0;" parent="1" edge="1">
          <mxGeometry width="50" height="50" relative="1" as="geometry">
            <mxPoint x="422" y="1360" as="sourcePoint" />
            <mxPoint x="422" y="1320" as="targetPoint" />
          </mxGeometry>
        </mxCell>
        <mxCell id="G5vFoTbcPxcVKafW3-E5-149" value="" style="rounded=0;whiteSpace=wrap;html=1;fillColor=#dae8fc;strokeColor=#6c8ebf;" parent="1" vertex="1">
          <mxGeometry x="598" y="1295" width="10" height="10" as="geometry" />
        </mxCell>
        <mxCell id="G5vFoTbcPxcVKafW3-E5-150" value="" style="endArrow=none;html=1;rounded=0;entryX=0.5;entryY=1;entryDx=0;entryDy=0;strokeWidth=3;strokeColor=#7EA6E0;" parent="1" target="G5vFoTbcPxcVKafW3-E5-149" edge="1">
          <mxGeometry width="50" height="50" relative="1" as="geometry">
            <mxPoint x="603" y="1410" as="sourcePoint" />
            <mxPoint x="582.5" y="1310" as="targetPoint" />
          </mxGeometry>
        </mxCell>
        <mxCell id="G5vFoTbcPxcVKafW3-E5-151" value="" style="rounded=0;whiteSpace=wrap;html=1;fillColor=#dae8fc;strokeColor=#6c8ebf;" parent="1" vertex="1">
          <mxGeometry x="691" y="1295" width="10" height="10" as="geometry" />
        </mxCell>
        <mxCell id="G5vFoTbcPxcVKafW3-E5-152" value="" style="endArrow=none;html=1;rounded=0;entryX=0.5;entryY=1;entryDx=0;entryDy=0;strokeWidth=3;strokeColor=#7EA6E0;" parent="1" target="G5vFoTbcPxcVKafW3-E5-151" edge="1">
          <mxGeometry width="50" height="50" relative="1" as="geometry">
            <mxPoint x="696" y="1410" as="sourcePoint" />
            <mxPoint x="675.5" y="1310" as="targetPoint" />
          </mxGeometry>
        </mxCell>
        <mxCell id="s6caeHgHR2JDdqSevMuh-1" value="Transmit" style="text;html=1;strokeColor=none;fillColor=none;align=center;verticalAlign=middle;whiteSpace=wrap;rounded=0;fontSize=9;" vertex="1" parent="1">
          <mxGeometry x="279" y="1335" width="60" height="10" as="geometry" />
        </mxCell>
        <mxCell id="s6caeHgHR2JDdqSevMuh-3" value="Transmit" style="text;html=1;strokeColor=none;fillColor=none;align=center;verticalAlign=middle;whiteSpace=wrap;rounded=0;fontSize=9;" vertex="1" parent="1">
          <mxGeometry x="638" y="1335" width="60" height="10" as="geometry" />
        </mxCell>
        <mxCell id="s6caeHgHR2JDdqSevMuh-4" value="Receive" style="text;html=1;strokeColor=none;fillColor=none;align=center;verticalAlign=middle;whiteSpace=wrap;rounded=0;fontSize=9;" vertex="1" parent="1">
          <mxGeometry x="373" y="1335" width="60" height="10" as="geometry" />
        </mxCell>
        <mxCell id="s6caeHgHR2JDdqSevMuh-5" value="Receive" style="text;html=1;strokeColor=none;fillColor=none;align=center;verticalAlign=middle;whiteSpace=wrap;rounded=0;fontSize=9;" vertex="1" parent="1">
          <mxGeometry x="546" y="1335" width="60" height="10" as="geometry" />
        </mxCell>
      </root>
    </mxGraphModel>
  </diagram>
</mxfile>
